<?xml version="1.0" encoding="UTF-8"?>
<!DOCTYPE svg PUBLIC "-//W3C//DTD SVG 1.1//EN" "http://www.w3.org/Graphics/SVG/1.1/DTD/svg11.dtd">
<svg width="378mm" height="217mm" viewBox="0 0 37800 21700" version="1.1" xmlns="http://www.w3.org/2000/svg" xmlns:xlink="http://www.w3.org/1999/xlink" stroke-width="28.222" stroke-linejoin="round" xml:space="preserve">
 <path fill="rgb(255,255,255)" stroke="none" d="M 18900,21674 L 0,21674 0,0 37800,0 37800,21674 18900,21674 Z"/>
 <path fill="none" stroke="rgb(179,179,179)" stroke-linejoin="round" d="M 20354,17766 L 3852,17766 3852,3976 36857,3976 36857,17766 20354,17766 Z"/>
 <path fill="none" stroke="rgb(179,179,179)" stroke-linejoin="round" d="M 36857,17765 L 3852,17765"/>
 <path fill="none" stroke="rgb(179,179,179)" stroke-linejoin="round" d="M 36857,15466 L 3852,15466"/>
 <path fill="none" stroke="rgb(179,179,179)" stroke-linejoin="round" d="M 36857,13168 L 3852,13168"/>
 <path fill="none" stroke="rgb(179,179,179)" stroke-linejoin="round" d="M 36857,10869 L 3852,10869"/>
 <path fill="none" stroke="rgb(179,179,179)" stroke-linejoin="round" d="M 36857,8572 L 3852,8572"/>
 <path fill="none" stroke="rgb(179,179,179)" stroke-linejoin="round" d="M 36857,6273 L 3852,6273"/>
 <path fill="none" stroke="rgb(179,179,179)" stroke-linejoin="round" d="M 36857,3974 L 3852,3974"/>
 <path fill="none" stroke="rgb(179,179,179)" stroke-linejoin="round" d="M 3852,17915 L 3852,17765"/>
 <path fill="none" stroke="rgb(179,179,179)" stroke-linejoin="round" d="M 3852,17915 L 3852,17765"/>
 <path fill="none" stroke="rgb(179,179,179)" stroke-linejoin="round" d="M 7977,17915 L 7977,17765"/>
 <path fill="none" stroke="rgb(179,179,179)" stroke-linejoin="round" d="M 7977,17915 L 7977,17765"/>
 <path fill="none" stroke="rgb(179,179,179)" stroke-linejoin="round" d="M 12103,17915 L 12103,17765"/>
 <path fill="none" stroke="rgb(179,179,179)" stroke-linejoin="round" d="M 12103,17915 L 12103,17765"/>
 <path fill="none" stroke="rgb(179,179,179)" stroke-linejoin="round" d="M 16229,17915 L 16229,17765"/>
 <path fill="none" stroke="rgb(179,179,179)" stroke-linejoin="round" d="M 16229,17915 L 16229,17765"/>
 <path fill="none" stroke="rgb(179,179,179)" stroke-linejoin="round" d="M 20354,17915 L 20354,17765"/>
 <path fill="none" stroke="rgb(179,179,179)" stroke-linejoin="round" d="M 20354,17915 L 20354,17765"/>
 <path fill="none" stroke="rgb(179,179,179)" stroke-linejoin="round" d="M 24479,17915 L 24479,17765"/>
 <path fill="none" stroke="rgb(179,179,179)" stroke-linejoin="round" d="M 24479,17915 L 24479,17765"/>
 <path fill="none" stroke="rgb(179,179,179)" stroke-linejoin="round" d="M 28605,17915 L 28605,17765"/>
 <path fill="none" stroke="rgb(179,179,179)" stroke-linejoin="round" d="M 28605,17915 L 28605,17765"/>
 <path fill="none" stroke="rgb(179,179,179)" stroke-linejoin="round" d="M 32731,17915 L 32731,17765"/>
 <path fill="none" stroke="rgb(179,179,179)" stroke-linejoin="round" d="M 32731,17915 L 32731,17765"/>
 <path fill="none" stroke="rgb(179,179,179)" stroke-linejoin="round" d="M 36857,17915 L 36857,17765"/>
 <path fill="none" stroke="rgb(179,179,179)" stroke-linejoin="round" d="M 36857,17915 L 36857,17765"/>
 <path fill="none" stroke="rgb(179,179,179)" stroke-linejoin="round" d="M 3852,17765 L 36857,17765"/>
 <path fill="none" stroke="rgb(0,69,134)" stroke-width="80" stroke-linejoin="round" d="M 7317,17764 L 7334,17764 7350,17764 7367,17764 7383,17764 7400,17764 7424,17764 7441,17764 7457,17764 7474,17764 7499,17764 7515,17764 7532,17763 7548,17763 7565,17763 7589,17762 7606,17761 7622,17761 7639,17760 7655,17760 7680,17759 7697,17758 7713,17757 7730,17757 7746,17756 7771,17755 7787,17754 7804,17753 7820,17752 7837,17751 7862,17750 7878,17749 7895,17748 7911,17747 7928,17746 7952,17744 7969,17743 7986,17742 8002,17741 8010,17741 8019,17740 8043,17739 8060,17737 8076,17736 8093,17735 8109,17734 8134,17732 8151,17731 8167,17730 8184,17729 8208,17728 8225,17726 8241,17725 8258,17724 8274,17723 8299,17722 8316,17721 8332,17720 8349,17719 8365,17718 8382,17717 8390,17717 8406,17716 8423,17715 8439,17714 8456,17714 8481,17712 8497,17712 8514,17711 8530,17711 8547,17710 8571,17709 8588,17709 8604,17708 8621,17708 8637,17708 8662,17707 8679,17707 8695,17707 8712,17707 8728,17707 8753,17707 8769,17707 8786,17707 8802,17707 8819,17707 8844,17707 8860,17708 8877,17708 8893,17708 8918,17709 8934,17710 8951,17710 8967,17711 8984,17711 9009,17712 9025,17713 9042,17714 9058,17715 9075,17715 9099,17717 9116,17718 9132,17719 9149,17720 9165,17721 9190,17722 9207,17723 9223,17724 9240,17725 9256,17727 9281,17728 9297,17729 9314,17731 9330,17732 9347,17733 9372,17735 9388,17736 9405,17737 9421,17738 9438,17740 9463,17741 9479,17743 9496,17744 9512,17745 9529,17746 9553,17748 9570,17749 9586,17750 9603,17751 9628,17752 9644,17753 9661,17754 9677,17755 9694,17756 9718,17758 9735,17758 9751,17759 9768,17760 9784,17760 9809,17761 9826,17762 9842,17762 9859,17763 9875,17763 9900,17764 9916,17764 9933,17764 9949,17764 9966,17764 9991,17764 10007,17764 10024,17764 10040,17764 10057,17764 10081,17763 10098,17763 10114,17763 10131,17762 10147,17762 10172,17761 10189,17760 10205,17759 10222,17758 10238,17758 10263,17756 10279,17755 10296,17754 10312,17753 10337,17751 10354,17750 10370,17749 10387,17747 10403,17746 10428,17744 10444,17742 10461,17741 10477,17739 10494,17738 10519,17735 10535,17733 10552,17732 10568,17730 10585,17728 10609,17726 10626,17724 10642,17722 10659,17720 10675,17718 10692,17717 10700,17716 10717,17714 10733,17712 10750,17710 10766,17708 10791,17706 10808,17704 10824,17702 10841,17700 10857,17699 10882,17696 10898,17695 10907,17694 10915,17693 10931,17691 10948,17690 10973,17687 10989,17686 11006,17685 11022,17683 11047,17681 11063,17680 11080,17679 11096,17678 11113,17677 11138,17675 11154,17674 11171,17673 11187,17673 11204,17672 11228,17671 11245,17670 11253,17670 11261,17670 11278,17670 11294,17669 11319,17669 11336,17669 11352,17669 11369,17669 11385,17669 11410,17669 11426,17669 11443,17670 11459,17670 11468,17670 11476,17671 11501,17672 11517,17672 11534,17673 11550,17674 11567,17675 11591,17676 11608,17677 11624,17679 11641,17680 11657,17681 11682,17683 11699,17685 11715,17686 11732,17688 11756,17690 11773,17692 11789,17693 11798,17694 11806,17695 11822,17697 11847,17700 11864,17702 11880,17704 11897,17705 11913,17707 11938,17710 11954,17712 11971,17714 11987,17716 11996,17717 12004,17718 12029,17721 12045,17724 12062,17726 12078,17728 12095,17730 12120,17732 12136,17734 12153,17736 12169,17738 12186,17740 12202,17742 12210,17743 12227,17744 12243,17746 12260,17748 12276,17749 12301,17751 12318,17753 12334,17754 12351,17755 12367,17757 12392,17758 12408,17759 12425,17760 12441,17761 12458,17762 12483,17763 12499,17763 12516,17764 12532,17764 12557,17764 12573,17764 12590,17764 12606,17764 12623,17764 12648,17764 12664,17763 12681,17762 12697,17762 12714,17761 12738,17759 12755,17758 12771,17757 12788,17756 12804,17754 12829,17752 12846,17750 12862,17749 12879,17747 12895,17745 12920,17742 12928,17740 12936,17739 12953,17737 12969,17735 12986,17732 13011,17728 13027,17725 13044,17723 13060,17720 13077,17717 13101,17712 13118,17709 13134,17706 13151,17703 13167,17699 13192,17694 13200,17693 13209,17691 13225,17688 13242,17684 13266,17679 13283,17675 13299,17672 13308,17670 13316,17668 13332,17665 13357,17660 13374,17656 13390,17653 13407,17649 13423,17646 13448,17640 13464,17637 13481,17634 13498,17630 13514,17627 13539,17622 13555,17619 13572,17616 13588,17613 13605,17610 13630,17606 13646,17604 13663,17601 13671,17600 13679,17599 13696,17596 13720,17593 13737,17591 13753,17589 13770,17587 13786,17585 13811,17583 13828,17581 13844,17580 13861,17579 13877,17578 13902,17577 13918,17576 13935,17576 13951,17575 13976,17575 13993,17575 14009,17575 14026,17576 14042,17576 14050,17576 14067,17577 14083,17578 14100,17579 14116,17580 14133,17582 14158,17584 14174,17586 14191,17587 14207,17589 14224,17592 14248,17595 14265,17597 14281,17600 14298,17603 14314,17606 14339,17610 14356,17613 14372,17616 14389,17620 14405,17623 14413,17625 14430,17628 14446,17632 14463,17636 14479,17640 14496,17643 14512,17647 14521,17649 14537,17653 14554,17657 14570,17661 14587,17665 14611,17671 14628,17676 14644,17680 14661,17684 14686,17690 14702,17694 14710,17696 14719,17698 14735,17702 14752,17706 14776,17712 14793,17715 14809,17719 14826,17723 14842,17726 14867,17731 14884,17734 14900,17737 14917,17740 14925,17742 14933,17743 14958,17747 14975,17750 14991,17752 15008,17754 15024,17756 15049,17759 15065,17760 15082,17761 15098,17762 15115,17763 15140,17764 15156,17764 15173,17764 15189,17764 15206,17764 15230,17763 15247,17762 15263,17761 15280,17759 15296,17757 15321,17754 15338,17752 15354,17749 15371,17746 15395,17741 15404,17740 15412,17738 15428,17734 15445,17730 15461,17725 15486,17718 15494,17716 15503,17713 15519,17708 15536,17703 15552,17697 15560,17694 15577,17688 15593,17681 15610,17675 15626,17668 15643,17661 15668,17650 15676,17646 15684,17642 15701,17635 15717,17627 15725,17623 15734,17618 15758,17606 15775,17597 15791,17589 15808,17580 15816,17575 15824,17571 15849,17557 15857,17553 15866,17548 15882,17539 15899,17529 15915,17520 15940,17505 15956,17496 15973,17486 15981,17481 15989,17476 16006,17467 16022,17457 16031,17452 16047,17442 16064,17433 16080,17423 16105,17409 16121,17400 16138,17390 16146,17386 16154,17381 16171,17372 16187,17363 16196,17359 16212,17350 16229,17342 16237,17338 16245,17334 16262,17325 16287,17314 16303,17306 16320,17299 16336,17292 16353,17285 16377,17276 16394,17270 16410,17264 16427,17258 16443,17253 16468,17246 16485,17242 16501,17238 16518,17235 16534,17232 16559,17228 16575,17226 16592,17225 16608,17223 16617,17223 16625,17223 16650,17222 16666,17222 16683,17223 16691,17224 16699,17224 16716,17226 16740,17229 16757,17232 16773,17235 16790,17239 16815,17245 16823,17247 16831,17250 16848,17255 16864,17260 16881,17266 16897,17273 16905,17276 16922,17283 16938,17291 16947,17295 16955,17299 16971,17307 16996,17320 17013,17329 17029,17338 17037,17343 17046,17348 17062,17358 17079,17369 17087,17374 17103,17385 17112,17390 17120,17396 17136,17407 17145,17413 17153,17419 17178,17436 17194,17448 17211,17460 17227,17473 17244,17485 17268,17504 17277,17510 17285,17516 17301,17529 17310,17535 17318,17541 17334,17554 17359,17572 17367,17579 17376,17585 17392,17597 17400,17603 17409,17609 17425,17621 17433,17626 17450,17638 17466,17649 17483,17660 17499,17670 17524,17685 17541,17695 17557,17704 17574,17713 17590,17721 17615,17732 17632,17738 17640,17741 17648,17744 17665,17749 17681,17754 17706,17759 17722,17762 17739,17764 17755,17764 17772,17764 17797,17762 17813,17760 17830,17756 17846,17752 17863,17746 17879,17739 17887,17735 17904,17727 17920,17717 17937,17705 17953,17693 17978,17672 17986,17664 17995,17656 18011,17639 18028,17620 18044,17600 18052,17589 18069,17567 18085,17543 18102,17518 18110,17504 18118,17491 18127,17477 18135,17462 18143,17447 18151,17432 18160,17416 18168,17400 18176,17383 18193,17349 18201,17331 18209,17313 18226,17275 18234,17255 18242,17235 18250,17215 18259,17194 18267,17173 18275,17151 18283,17129 18300,17083 18308,17059 18316,17035 18325,17011 18333,16986 18341,16960 18349,16934 18358,16908 18366,16881 18374,16854 18382,16826 18391,16798 18399,16770 18407,16741 18415,16711 18424,16681 18432,16651 18440,16620 18448,16588 18457,16556 18465,16524 18473,16491 18481,16458 18490,16424 18498,16390 18506,16356 18514,16320 18523,16285 18531,16249 18539,16212 18547,16175 18556,16138 18564,16100 18572,16062 18580,16023 18589,15984 18597,15944 18605,15904 18613,15864 18622,15823 18630,15781 18638,15739 18646,15697 18655,15654 18663,15611 18671,15568 18679,15524 18688,15479 18696,15434 18704,15389 18712,15343 18721,15297 18729,15251 18737,15204 18745,15156 18754,15109 18762,15060 18770,15012 18778,14963 18787,14914 18795,14864 18803,14814 18811,14764 18820,14713 18828,14662 18836,14610 18844,14558 18853,14506 18861,14453 18869,14401 18877,14347 18886,14294 18894,14240 18901,14186 18909,14131 18918,14076 18926,14021 18934,13966 18942,13910 18951,13854 18959,13798 18967,13741 18976,13684 18984,13627 18992,13570 19000,13512 19009,13454 19017,13396 19025,13338 19033,13279 19042,13220 19050,13161 19058,13102 19066,13043 19075,12983 19083,12923 19091,12863 19099,12803 19108,12743 19116,12682 19124,12622 19132,12561 19141,12500 19149,12439 19157,12378 19165,12316 19174,12255 19182,12194 19190,12132 19198,12070 19207,12009 19215,11947 19223,11885 19231,11823 19240,11761 19248,11699 19256,11637 19264,11575 19273,11513 19281,11451 19289,11389 19297,11327 19306,11265 19314,11203 19322,11141 19330,11079 19339,11017 19347,10955 19355,10893 19363,10833 19372,10771 19380,10709 19388,10648 19396,10587 19405,10526 19413,10464 19421,10404 19429,10343 19438,10282 19446,10222 19454,10161 19462,10101 19470,10041 19479,9982 19487,9922 19495,9863 19504,9804 19512,9745 19520,9686 19528,9628 19537,9570 19545,9512 19553,9454 19561,9397 19570,9340 19578,9283 19586,9227 19595,9171 19603,9115 19611,9060 19619,9005 19628,8950 19636,8895 19644,8841 19652,8788 19661,8734 19669,8681 19677,8629 19685,8577 19693,8525 19702,8473 19710,8422 19718,8372 19726,8322 19734,8272 19742,8223 19750,8174 19758,8126 19767,8078 19775,8031 19783,7984 19791,7938 19799,7892 19808,7847 19816,7802 19824,7758 19833,7715 19841,7672 19850,7629 19858,7588 19867,7546 19876,7506 19885,7466 19893,7426 19902,7387 19911,7349 19920,7311 19928,7274 19937,7238 19945,7202 19954,7166 19962,7132 19970,7097 19979,7064 19986,7030 19994,6998 20002,6966 20009,6934 20016,6903 20023,6873 20030,6843 20037,6814 20043,6785 20050,6757 20056,6730 20062,6703 20069,6677 20075,6652 20082,6628 20089,6605 20097,6582 20105,6561 20122,6520 20131,6502 20141,6484 20152,6468 20163,6453 20175,6438 20202,6414 20217,6403 20233,6394 20249,6386 20265,6379 20282,6374 20300,6369 20318,6366 20336,6364 20354,6364 20389,6366 20407,6369 20425,6374 20442,6379 20458,6386 20474,6394 20490,6403 20505,6414 20519,6425 20544,6453 20555,6468 20566,6484 20576,6502 20585,6520 20594,6540 20610,6582 20618,6605 20625,6628 20632,6652 20638,6677 20645,6703 20651,6730 20657,6757 20664,6785 20670,6814 20677,6843 20684,6873 20691,6903 20698,6934 20705,6966 20713,6998 20721,7030 20728,7064 20737,7097 20745,7132 20753,7166 20762,7202 20770,7238 20779,7274 20787,7311 20796,7349 20805,7387 20814,7426 20822,7466 20831,7506 20840,7546 20849,7588 20857,7629 20866,7672 20874,7715 20883,7758 20891,7802 20899,7847 20908,7892 20916,7938 20924,7984 20932,8031 20940,8078 20949,8126 20957,8174 20965,8223 20973,8272 20981,8322 20989,8372 20997,8422 21005,8473 21014,8525 21022,8577 21030,8629 21038,8681 21046,8734 21055,8788 21063,8841 21071,8895 21079,8950 21088,9005 21096,9060 21104,9115 21112,9171 21121,9227 21129,9283 21137,9340 21146,9397 21154,9454 21162,9512 21170,9570 21179,9628 21187,9686 21195,9745 21203,9804 21212,9863 21220,9922 21228,9982 21237,10041 21245,10101 21253,10161 21261,10222 21269,10282 21278,10343 21286,10404 21294,10464 21302,10526 21311,10587 21319,10648 21327,10709 21335,10771 21344,10833 21352,10893 21360,10955 21368,11017 21377,11079 21385,11141 21393,11203 21401,11265 21410,11327 21418,11389 21426,11451 21434,11513 21443,11575 21451,11637 21459,11699 21467,11761 21476,11823 21484,11885 21492,11947 21500,12009 21509,12070 21517,12132 21525,12194 21533,12255 21542,12316 21550,12378 21558,12439 21566,12500 21575,12561 21583,12622 21591,12682 21599,12743 21608,12803 21616,12863 21624,12923 21632,12983 21641,13043 21649,13102 21657,13161 21665,13220 21674,13279 21682,13338 21690,13396 21698,13454 21707,13512 21715,13570 21723,13627 21731,13684 21740,13741 21748,13798 21756,13854 21765,13910 21773,13966 21781,14021 21789,14076 21798,14131 21806,14186 21814,14240 21822,14294 21831,14347 21839,14401 21847,14453 21855,14506 21864,14558 21872,14610 21880,14662 21888,14713 21897,14764 21905,14814 21913,14864 21921,14914 21930,14963 21938,15012 21946,15060 21954,15109 21963,15156 21971,15204 21979,15251 21987,15297 21996,15343 22004,15389 22012,15434 22020,15479 22029,15524 22037,15568 22045,15611 22053,15654 22062,15697 22070,15739 22078,15781 22086,15823 22095,15864 22103,15904 22111,15944 22119,15984 22128,16023 22136,16062 22144,16100 22152,16138 22161,16175 22169,16212 22177,16249 22185,16285 22194,16320 22202,16356 22210,16390 22218,16424 22227,16458 22235,16491 22243,16524 22251,16556 22260,16588 22268,16620 22276,16651 22284,16681 22293,16711 22301,16741 22309,16770 22317,16798 22326,16826 22334,16854 22342,16881 22350,16908 22359,16934 22367,16960 22375,16986 22383,17011 22392,17035 22400,17059 22408,17083 22416,17106 22433,17151 22441,17173 22449,17194 22458,17215 22466,17235 22474,17255 22482,17275 22491,17294 22507,17331 22515,17349 22524,17366 22540,17400 22548,17416 22557,17432 22565,17447 22573,17462 22581,17477 22590,17491 22598,17504 22606,17518 22614,17531 22631,17555 22647,17578 22664,17600 22672,17610 22689,17630 22705,17648 22722,17664 22730,17672 22738,17679 22763,17699 22779,17711 22796,17722 22812,17731 22829,17739 22837,17743 22854,17749 22870,17754 22887,17758 22903,17761 22920,17763 22944,17764 22961,17764 22977,17763 22994,17761 23010,17758 23035,17752 23052,17747 23068,17741 23076,17738 23085,17735 23101,17728 23126,17717 23143,17708 23159,17700 23176,17690 23192,17681 23217,17665 23233,17655 23250,17644 23266,17632 23283,17621 23291,17615 23308,17603 23316,17597 23324,17591 23341,17579 23349,17572 23357,17566 23382,17548 23398,17535 23407,17529 23415,17523 23431,17510 23440,17504 23448,17498 23473,17479 23489,17467 23506,17454 23522,17442 23539,17430 23563,17413 23572,17407 23580,17401 23596,17390 23605,17385 23613,17379 23629,17369 23638,17363 23654,17353 23671,17343 23679,17338 23687,17334 23704,17324 23720,17315 23745,17303 23761,17295 23770,17291 23778,17287 23794,17280 23811,17273 23819,17270 23836,17263 23852,17258 23869,17252 23885,17247 23893,17245 23902,17243 23926,17237 23943,17233 23959,17231 23976,17228 24001,17225 24017,17224 24025,17223 24034,17223 24050,17222 24067,17222 24091,17223 24100,17223 24108,17224 24124,17225 24141,17227 24157,17229 24182,17233 24199,17237 24215,17240 24232,17244 24248,17249 24273,17256 24289,17261 24306,17267 24322,17272 24339,17279 24364,17288 24380,17295 24397,17303 24413,17310 24430,17318 24454,17329 24471,17338 24479,17342 24488,17346 24504,17355 24521,17363 24529,17368 24545,17377 24562,17386 24570,17390 24578,17395 24595,17404 24611,17414 24636,17428 24653,17438 24669,17447 24686,17457 24694,17462 24710,17471 24727,17481 24735,17486 24743,17491 24760,17500 24776,17510 24801,17524 24818,17534 24834,17543 24851,17553 24859,17557 24867,17562 24892,17575 24900,17580 24908,17584 24925,17593 24941,17602 24958,17610 24983,17623 24991,17627 24999,17631 25016,17638 25032,17646 25040,17650 25049,17654 25073,17664 25090,17671 25106,17678 25123,17685 25139,17691 25156,17697 25164,17700 25181,17705 25197,17711 25214,17716 25222,17718 25230,17721 25255,17728 25271,17732 25288,17736 25304,17740 25313,17741 25321,17743 25346,17748 25362,17751 25379,17753 25395,17755 25420,17758 25436,17760 25453,17761 25469,17762 25486,17763 25511,17764 25527,17764 25544,17764 25560,17764 25577,17764 25601,17763 25618,17762 25634,17761 25651,17759 25667,17758 25692,17755 25709,17753 25725,17751 25742,17748 25758,17746 25783,17742 25791,17740 25799,17739 25816,17736 25832,17733 25849,17729 25874,17724 25890,17721 25907,17717 25923,17713 25940,17710 25965,17704 25981,17700 25998,17696 26006,17694 26014,17692 26031,17688 26055,17682 26072,17678 26088,17673 26105,17669 26130,17663 26146,17659 26163,17655 26179,17651 26196,17647 26204,17645 26220,17641 26237,17638 26253,17634 26270,17630 26286,17627 26303,17623 26311,17621 26328,17618 26344,17615 26361,17612 26377,17609 26402,17604 26418,17601 26435,17599 26451,17596 26468,17594 26493,17590 26509,17588 26526,17587 26542,17585 26559,17583 26583,17581 26600,17580 26616,17579 26633,17578 26649,17577 26666,17576 26674,17576 26691,17575 26707,17575 26724,17575 26740,17575 26765,17575 26781,17576 26798,17576 26814,17577 26839,17578 26856,17580 26872,17581 26889,17582 26905,17584 26930,17586 26946,17588 26963,17590 26979,17592 26996,17594 27021,17597 27037,17600 27045,17601 27054,17602 27070,17605 27087,17608 27111,17612 27128,17615 27144,17618 27161,17621 27177,17624 27202,17629 27219,17632 27235,17635 27252,17639 27268,17642 27293,17647 27310,17651 27326,17654 27343,17658 27359,17661 27384,17667 27400,17670 27409,17672 27417,17674 27433,17677 27450,17681 27475,17686 27491,17689 27508,17693 27516,17694 27524,17696 27549,17701 27565,17704 27582,17708 27598,17711 27615,17714 27640,17718 27656,17721 27673,17724 27689,17727 27706,17729 27730,17733 27747,17736 27763,17738 27780,17740 27788,17742 27796,17743 27821,17746 27838,17748 27854,17749 27871,17751 27887,17753 27912,17755 27928,17756 27945,17758 27961,17759 27978,17760 28003,17761 28019,17762 28036,17763 28052,17763 28069,17764 28093,17764 28110,17764 28126,17764 28143,17764 28159,17764 28184,17764 28201,17764 28217,17763 28234,17763 28258,17762 28275,17761 28291,17760 28308,17759 28324,17758 28349,17756 28366,17755 28382,17754 28399,17752 28415,17751 28440,17748 28456,17747 28473,17745 28489,17743 28506,17742 28514,17741 28531,17739 28547,17737 28564,17735 28580,17733 28597,17731 28622,17729 28638,17727 28655,17725 28671,17723 28688,17720 28712,17717 28721,17716 28729,17715 28745,17713 28762,17711 28778,17709 28803,17706 28820,17704 28836,17703 28853,17701 28869,17699 28894,17696 28910,17694 28919,17693 28927,17693 28943,17691 28960,17689 28985,17687 29001,17685 29018,17684 29034,17682 29059,17680 29075,17679 29092,17678 29108,17677 29125,17676 29150,17674 29166,17673 29183,17673 29199,17672 29216,17671 29240,17670 29249,17670 29257,17670 29273,17670 29290,17669 29306,17669 29331,17669 29348,17669 29364,17669 29381,17669 29397,17669 29422,17669 29438,17670 29455,17670 29463,17670 29471,17671 29488,17671 29513,17672 29529,17673 29546,17674 29562,17675 29579,17676 29603,17677 29620,17678 29636,17679 29653,17681 29669,17682 29694,17684 29711,17685 29727,17687 29744,17688 29768,17691 29785,17692 29801,17694 29810,17695 29818,17695 29834,17697 29859,17700 29876,17701 29892,17703 29909,17705 29925,17707 29950,17709 29966,17711 29983,17713 30000,17715 30016,17717 30024,17718 30041,17719 30057,17721 30074,17723 30090,17725 30107,17727 30132,17729 30148,17731 30165,17733 30181,17734 30198,17736 30222,17738 30239,17740 30255,17742 30272,17743 30288,17744 30313,17747 30330,17748 30346,17749 30363,17751 30379,17752 30404,17753 30420,17755 30437,17756 30453,17757 30478,17758 30495,17759 30511,17760 30528,17760 30544,17761 30569,17762 30585,17762 30602,17763 30618,17763 30635,17764 30660,17764 30676,17764 30693,17764 30709,17764 30726,17764 30750,17764 30767,17764 30783,17764 30800,17764 30816,17764 30841,17763 30858,17763 30874,17762 30891,17762 30907,17761 30932,17760 30948,17759 30965,17759 30981,17758 30998,17757 31023,17756 31039,17755 31056,17754 31072,17753 31089,17752 31113,17750 31130,17749 31146,17748 31163,17747 31188,17745 31204,17744 31221,17743 31237,17742 31254,17741 31278,17739 31295,17738 31311,17737 31328,17735 31344,17734 31369,17732 31386,17731 31402,17730 31419,17729 31435,17728 31460,17726 31477,17725 31493,17724 31510,17723 31526,17722 31551,17720 31567,17719 31584,17718 31600,17717 31617,17716 31642,17715 31658,17714 31675,17713 31691,17713 31708,17712 31732,17711 31749,17710 31765,17710 31782,17709 31798,17709 31823,17708 31840,17708 31856,17708 31873,17707 31897,17707 31914,17707 31930,17707 31947,17707 31963,17707 31988,17707 32005,17707 32021,17707 32038,17707 32054,17707 32079,17708 32095,17708 32112,17709 32128,17709 32145,17710 32170,17710 32186,17711 32203,17711 32219,17712 32236,17713 32260,17714 32277,17715 32293,17715 32310,17716 32326,17717 32335,17718 32351,17718 32368,17719 32384,17720 32401,17721 32417,17722 32442,17724 32458,17725 32475,17726 32491,17727 32508,17728 32533,17730 32549,17731 32566,17732 32582,17733 32607,17735 32623,17736 32640,17737 32656,17738 32673,17739 32698,17741 32706,17741 32714,17742 32731,17743 32747,17744 32764,17745 32789,17747 32805,17748 32822,17749 32838,17750 32855,17750 32879,17752 32896,17753 32912,17754 32929,17754 32945,17755 32970,17756 32987,17757 33003,17758 33020,17759 33036,17759 33061,17760 33077,17761 33094,17761 33110,17762 33127,17762 33152,17763 33168,17763 33185,17763 33201,17764 33218,17764 33242,17764 33259,17764 33275,17764 33292,17764 33317,17764 33333,17764 33350,17764 33366,17764 33383,17764"/>
 <text class="TextShape"><tspan class="TextParagraph" font-family="Arial, sans-serif" font-size="353px" font-weight="400"><tspan class="TextPosition" x="3614" y="18333"><tspan fill="rgb(0,0,0)" stroke="none">-40</tspan></tspan></tspan></text>
 <text class="TextShape"><tspan class="TextParagraph" font-family="Arial, sans-serif" font-size="353px" font-weight="400"><tspan class="TextPosition" x="7739" y="18333"><tspan fill="rgb(0,0,0)" stroke="none">-30</tspan></tspan></tspan></text>
 <text class="TextShape"><tspan class="TextParagraph" font-family="Arial, sans-serif" font-size="353px" font-weight="400"><tspan class="TextPosition" x="11865" y="18333"><tspan fill="rgb(0,0,0)" stroke="none">-20</tspan></tspan></tspan></text>
 <text class="TextShape"><tspan class="TextParagraph" font-family="Arial, sans-serif" font-size="353px" font-weight="400"><tspan class="TextPosition" x="15991" y="18333"><tspan fill="rgb(0,0,0)" stroke="none">-10</tspan></tspan></tspan></text>
 <text class="TextShape"><tspan class="TextParagraph" font-family="Arial, sans-serif" font-size="353px" font-weight="400"><tspan class="TextPosition" x="20262" y="18333"><tspan fill="rgb(0,0,0)" stroke="none">0</tspan></tspan></tspan></text>
 <text class="TextShape"><tspan class="TextParagraph" font-family="Arial, sans-serif" font-size="353px" font-weight="400"><tspan class="TextPosition" x="24295" y="18333"><tspan fill="rgb(0,0,0)" stroke="none">10</tspan></tspan></tspan></text>
 <text class="TextShape"><tspan class="TextParagraph" font-family="Arial, sans-serif" font-size="353px" font-weight="400"><tspan class="TextPosition" x="28421" y="18333"><tspan fill="rgb(0,0,0)" stroke="none">20</tspan></tspan></tspan></text>
 <text class="TextShape"><tspan class="TextParagraph" font-family="Arial, sans-serif" font-size="353px" font-weight="400"><tspan class="TextPosition" x="32547" y="18333"><tspan fill="rgb(0,0,0)" stroke="none">30</tspan></tspan></tspan></text>
 <text class="TextShape"><tspan class="TextParagraph" font-family="Arial, sans-serif" font-size="353px" font-weight="400"><tspan class="TextPosition" x="36673" y="18333"><tspan fill="rgb(0,0,0)" stroke="none">40</tspan></tspan></tspan></text>
 <text class="TextShape"><tspan class="TextParagraph" font-family="DejaVu Sans Condensed, sans-serif" font-size="1693px" font-weight="400"><tspan class="TextPosition" x="13754" y="2637"><tspan fill="rgb(0,0,0)" stroke="none">Intensity vs β</tspan></tspan></tspan></text>
 <text class="TextShape"><tspan class="TextParagraph" font-family="Arial, sans-serif" font-size="1411px" font-weight="400"><tspan class="TextPosition" x="19932" y="20541"><tspan fill="rgb(0,0,0)" stroke="none">β</tspan></tspan></tspan></text>
 <text class="TextShape" transform="rotate(-90 2144 14687)"><tspan class="TextParagraph" font-family="Arial, sans-serif" font-size="1411px" font-weight="400"><tspan class="TextPosition" x="2144" y="14687"><tspan fill="rgb(0,0,0)" stroke="none">Intensity (I)</tspan></tspan></tspan></text>
</svg>