<?xml version="1.0" encoding="UTF-8"?>
<!DOCTYPE svg PUBLIC "-//W3C//DTD SVG 1.1//EN" "http://www.w3.org/Graphics/SVG/1.1/DTD/svg11.dtd">
<svg width="366mm" height="206mm" viewBox="0 0 36600 20600" version="1.1" xmlns="http://www.w3.org/2000/svg" xmlns:xlink="http://www.w3.org/1999/xlink" stroke-width="28.222" stroke-linejoin="round" xml:space="preserve">
 <path fill="rgb(255,255,255)" stroke="none" d="M 18300,20572 L 0,20572 0,0 36599,0 36599,20572 18300,20572 Z"/>
 <path fill="none" stroke="rgb(179,179,179)" stroke-linejoin="round" d="M 19754,17062 L 3828,17062 3828,1737 35680,1737 35680,17062 19754,17062 Z"/>
 <path fill="none" stroke="rgb(179,179,179)" stroke-linejoin="round" d="M 35680,17061 L 3828,17061"/>
 <path fill="none" stroke="rgb(179,179,179)" stroke-linejoin="round" d="M 35680,15145 L 3828,15145"/>
 <path fill="none" stroke="rgb(179,179,179)" stroke-linejoin="round" d="M 35680,13229 L 3828,13229"/>
 <path fill="none" stroke="rgb(179,179,179)" stroke-linejoin="round" d="M 35680,11313 L 3828,11313"/>
 <path fill="none" stroke="rgb(179,179,179)" stroke-linejoin="round" d="M 35680,9399 L 3828,9399"/>
 <path fill="none" stroke="rgb(179,179,179)" stroke-linejoin="round" d="M 35680,7483 L 3828,7483"/>
 <path fill="none" stroke="rgb(179,179,179)" stroke-linejoin="round" d="M 35680,5567 L 3828,5567"/>
 <path fill="none" stroke="rgb(179,179,179)" stroke-linejoin="round" d="M 35680,3651 L 3828,3651"/>
 <path fill="none" stroke="rgb(179,179,179)" stroke-linejoin="round" d="M 35680,1735 L 3828,1735"/>
 <path fill="none" stroke="rgb(179,179,179)" stroke-linejoin="round" d="M 3828,13379 L 3828,13229"/>
 <path fill="none" stroke="rgb(179,179,179)" stroke-linejoin="round" d="M 3828,13379 L 3828,13229"/>
 <path fill="none" stroke="rgb(179,179,179)" stroke-linejoin="round" d="M 7809,13379 L 7809,13229"/>
 <path fill="none" stroke="rgb(179,179,179)" stroke-linejoin="round" d="M 7809,13379 L 7809,13229"/>
 <path fill="none" stroke="rgb(179,179,179)" stroke-linejoin="round" d="M 11791,13379 L 11791,13229"/>
 <path fill="none" stroke="rgb(179,179,179)" stroke-linejoin="round" d="M 11791,13379 L 11791,13229"/>
 <path fill="none" stroke="rgb(179,179,179)" stroke-linejoin="round" d="M 15772,13379 L 15772,13229"/>
 <path fill="none" stroke="rgb(179,179,179)" stroke-linejoin="round" d="M 15772,13379 L 15772,13229"/>
 <path fill="none" stroke="rgb(179,179,179)" stroke-linejoin="round" d="M 19753,13379 L 19753,13229"/>
 <path fill="none" stroke="rgb(179,179,179)" stroke-linejoin="round" d="M 19753,13379 L 19753,13229"/>
 <path fill="none" stroke="rgb(179,179,179)" stroke-linejoin="round" d="M 23735,13379 L 23735,13229"/>
 <path fill="none" stroke="rgb(179,179,179)" stroke-linejoin="round" d="M 23735,13379 L 23735,13229"/>
 <path fill="none" stroke="rgb(179,179,179)" stroke-linejoin="round" d="M 27716,13379 L 27716,13229"/>
 <path fill="none" stroke="rgb(179,179,179)" stroke-linejoin="round" d="M 27716,13379 L 27716,13229"/>
 <path fill="none" stroke="rgb(179,179,179)" stroke-linejoin="round" d="M 31698,13379 L 31698,13229"/>
 <path fill="none" stroke="rgb(179,179,179)" stroke-linejoin="round" d="M 31698,13379 L 31698,13229"/>
 <path fill="none" stroke="rgb(179,179,179)" stroke-linejoin="round" d="M 35680,13379 L 35680,13229"/>
 <path fill="none" stroke="rgb(179,179,179)" stroke-linejoin="round" d="M 35680,13379 L 35680,13229"/>
 <path fill="none" stroke="rgb(179,179,179)" stroke-linejoin="round" d="M 3828,13229 L 35680,13229"/>
 <path fill="none" stroke="rgb(0,69,134)" stroke-width="80" stroke-linejoin="round" d="M 7172,13285 L 7180,13279 7196,13266 7212,13254 7228,13242 7236,13236 7252,13224 7268,13212 7276,13206 7292,13193 7299,13187 7307,13181 7323,13169 7339,13157 7347,13151 7363,13138 7371,13132 7379,13126 7395,13114 7419,13095 7435,13083 7443,13077 7451,13071 7467,13059 7491,13040 7507,13028 7514,13022 7522,13016 7546,12998 7562,12987 7570,12981 7578,12975 7594,12963 7618,12945 7634,12934 7642,12928 7650,12922 7674,12905 7690,12894 7698,12889 7706,12883 7722,12872 7745,12856 7753,12850 7761,12845 7777,12835 7801,12819 7809,12814 7817,12809 7833,12799 7841,12794 7849,12789 7873,12774 7889,12764 7905,12755 7921,12746 7937,12736 7945,12732 7960,12723 7968,12719 7976,12715 8000,12702 8016,12694 8032,12686 8040,12682 8048,12678 8072,12667 8080,12663 8088,12659 8104,12652 8120,12645 8128,12642 8144,12635 8160,12629 8167,12626 8175,12623 8199,12614 8215,12609 8231,12603 8255,12596 8271,12591 8279,12589 8287,12587 8303,12582 8327,12577 8343,12573 8351,12571 8359,12570 8382,12565 8398,12562 8414,12560 8430,12558 8454,12555 8470,12553 8478,12553 8486,12552 8510,12551 8526,12550 8542,12550 8558,12550 8582,12550 8597,12551 8613,12552 8629,12553 8637,12554 8653,12555 8669,12557 8685,12559 8709,12563 8725,12566 8741,12569 8757,12572 8765,12574 8781,12578 8797,12582 8812,12586 8828,12591 8836,12593 8852,12598 8868,12603 8892,12612 8908,12618 8924,12624 8940,12630 8964,12640 8980,12648 8996,12655 9020,12666 9035,12674 9051,12683 9059,12687 9067,12691 9091,12704 9107,12713 9123,12723 9147,12737 9155,12742 9163,12747 9179,12757 9187,12762 9195,12767 9219,12783 9235,12794 9243,12799 9250,12805 9266,12816 9274,12822 9290,12833 9298,12839 9306,12845 9322,12857 9346,12875 9362,12888 9370,12894 9378,12900 9394,12913 9402,12919 9418,12932 9434,12946 9442,12952 9450,12959 9465,12972 9473,12979 9481,12986 9489,12993 9505,13006 9529,13027 9545,13042 9561,13056 9569,13063 9577,13070 9593,13085 9601,13092 9609,13099 9617,13106 9633,13121 9649,13136 9657,13143 9673,13158 9688,13173 9704,13188 9712,13196 9728,13211 9744,13226 9752,13234 9760,13241 9768,13249 9784,13264 9792,13272 9800,13280 9808,13288 9816,13295 9832,13311 9848,13326 9856,13334 9872,13349 9888,13365 9903,13380 9927,13403 9943,13419 9959,13434 9967,13442 9983,13457 9999,13472 10007,13480 10015,13488 10023,13495 10031,13503 10047,13518 10055,13525 10063,13533 10071,13540 10087,13555 10103,13570 10111,13578 10126,13592 10142,13607 10158,13621 10166,13629 10182,13643 10198,13657 10206,13664 10214,13671 10230,13685 10238,13692 10246,13699 10254,13706 10270,13720 10286,13733 10294,13740 10310,13753 10318,13760 10326,13766 10341,13779 10365,13798 10381,13811 10389,13817 10397,13823 10413,13835 10437,13853 10453,13864 10461,13870 10469,13876 10485,13887 10493,13892 10509,13903 10517,13908 10525,13914 10541,13924 10564,13939 10572,13944 10580,13949 10596,13958 10604,13963 10620,13972 10636,13981 10652,13989 10668,13997 10676,14001 10692,14009 10708,14017 10716,14020 10724,14024 10748,14034 10756,14038 10763,14041 10779,14047 10795,14053 10803,14056 10819,14061 10835,14066 10851,14071 10867,14076 10875,14078 10891,14082 10907,14086 10923,14089 10947,14093 10963,14096 10978,14098 11002,14101 11018,14102 11034,14103 11050,14103 11074,14104 11090,14104 11106,14103 11130,14101 11146,14100 11162,14098 11178,14096 11201,14092 11217,14089 11233,14085 11257,14080 11273,14075 11281,14073 11289,14071 11305,14066 11329,14057 11337,14054 11345,14051 11361,14045 11385,14035 11401,14028 11416,14020 11424,14017 11432,14013 11456,14000 11464,13996 11472,13991 11488,13982 11496,13978 11512,13968 11528,13958 11544,13948 11560,13938 11584,13921 11600,13910 11608,13904 11616,13898 11631,13886 11639,13880 11655,13868 11663,13861 11671,13855 11679,13848 11687,13842 11703,13829 11711,13822 11727,13808 11743,13794 11751,13787 11767,13772 11783,13758 11791,13750 11799,13743 11807,13735 11815,13727 11831,13712 11839,13704 11846,13696 11854,13688 11870,13672 11886,13655 11902,13639 11910,13630 11918,13622 11926,13613 11934,13605 11942,13596 11958,13578 11966,13570 11974,13561 11982,13552 11990,13543 11998,13534 12006,13525 12014,13516 12022,13507 12038,13488 12054,13469 12069,13451 12085,13432 12093,13422 12101,13413 12109,13403 12117,13393 12125,13384 12133,13374 12141,13364 12149,13354 12165,13335 12181,13315 12197,13295 12205,13285 12221,13265 12237,13244 12253,13224 12269,13204 12284,13183 12292,13173 12300,13163 12308,13152 12324,13132 12340,13111 12348,13101 12356,13090 12364,13080 12372,13070 12380,13059 12396,13039 12412,13018 12420,13007 12428,12997 12436,12987 12444,12976 12452,12966 12468,12945 12476,12935 12484,12924 12492,12914 12499,12903 12507,12893 12515,12883 12523,12872 12531,12862 12539,12852 12547,12842 12555,12831 12563,12821 12571,12811 12579,12801 12587,12790 12603,12770 12619,12750 12627,12740 12635,12730 12643,12720 12651,12710 12659,12700 12675,12680 12691,12660 12707,12641 12722,12621 12730,12612 12738,12602 12746,12592 12754,12583 12762,12573 12770,12564 12778,12554 12786,12545 12802,12527 12818,12508 12834,12490 12850,12472 12858,12463 12866,12454 12874,12446 12882,12437 12890,12428 12898,12420 12906,12411 12914,12403 12929,12386 12937,12377 12945,12369 12953,12361 12961,12353 12969,12345 12985,12329 12993,12321 13001,12314 13009,12306 13017,12298 13033,12283 13049,12269 13057,12262 13073,12247 13089,12234 13097,12227 13113,12213 13129,12200 13137,12194 13145,12188 13160,12176 13184,12158 13200,12146 13216,12135 13240,12120 13256,12110 13272,12100 13288,12091 13304,12082 13312,12078 13328,12070 13344,12062 13367,12051 13383,12044 13399,12038 13415,12032 13439,12025 13455,12020 13471,12016 13495,12010 13511,12007 13527,12005 13543,12003 13567,12001 13582,12000 13598,11999 13622,12000 13638,12001 13654,12002 13670,12004 13694,12008 13702,12009 13710,12011 13726,12014 13750,12021 13766,12026 13774,12028 13782,12031 13797,12037 13821,12047 13837,12054 13853,12062 13861,12066 13869,12070 13893,12083 13901,12088 13909,12093 13925,12103 13949,12119 13957,12124 13965,12130 13981,12142 13997,12154 14005,12160 14020,12173 14028,12180 14036,12187 14052,12201 14068,12215 14076,12223 14092,12238 14108,12253 14124,12270 14132,12278 14148,12295 14164,12312 14180,12330 14196,12348 14204,12358 14212,12367 14220,12377 14228,12386 14235,12396 14243,12406 14251,12416 14259,12426 14275,12447 14291,12468 14299,12478 14307,12489 14315,12500 14331,12522 14347,12544 14355,12556 14363,12567 14371,12579 14379,12590 14387,12602 14395,12614 14403,12626 14411,12638 14419,12650 14435,12675 14443,12687 14458,12712 14466,12725 14474,12738 14482,12751 14490,12764 14506,12790 14514,12803 14522,12817 14530,12830 14538,12843 14546,12857 14562,12884 14570,12898 14578,12912 14586,12926 14594,12940 14602,12954 14610,12968 14618,12982 14626,12997 14634,13011 14642,13026 14658,13055 14665,13069 14673,13084 14681,13099 14689,13113 14697,13128 14705,13143 14713,13158 14721,13173 14729,13188 14737,13203 14745,13219 14753,13234 14761,13249 14777,13280 14785,13295 14793,13311 14801,13326 14809,13342 14817,13357 14825,13373 14833,13389 14841,13404 14849,13420 14857,13436 14873,13467 14880,13483 14888,13499 14896,13515 14904,13531 14912,13547 14920,13563 14928,13579 14936,13595 14944,13611 14952,13627 14960,13643 14968,13659 14976,13675 14984,13691 14992,13707 15000,13723 15008,13739 15016,13756 15032,13788 15040,13804 15048,13820 15056,13836 15064,13852 15072,13868 15088,13900 15095,13916 15103,13932 15111,13948 15119,13964 15127,13980 15143,14012 15151,14028 15159,14044 15167,14060 15175,14076 15183,14092 15191,14107 15199,14123 15207,14139 15215,14154 15223,14170 15239,14201 15247,14217 15255,14232 15263,14248 15271,14263 15287,14294 15295,14309 15303,14324 15311,14339 15326,14369 15334,14384 15342,14399 15350,14414 15366,14443 15374,14458 15382,14472 15398,14501 15406,14515 15414,14530 15422,14544 15438,14572 15446,14586 15454,14600 15462,14614 15470,14627 15478,14641 15494,14668 15502,14681 15510,14694 15526,14720 15533,14733 15549,14759 15557,14771 15565,14784 15573,14796 15581,14808 15597,14833 15605,14845 15621,14868 15637,14891 15645,14902 15653,14914 15661,14925 15677,14947 15685,14957 15693,14968 15701,14978 15709,14989 15717,14999 15733,15019 15748,15038 15764,15057 15780,15075 15796,15093 15804,15101 15812,15110 15820,15118 15828,15126 15836,15134 15852,15150 15868,15164 15876,15172 15892,15185 15908,15198 15916,15205 15932,15217 15940,15223 15948,15228 15963,15239 15979,15249 15995,15258 16003,15263 16019,15271 16035,15278 16059,15288 16075,15293 16083,15296 16091,15298 16107,15302 16131,15307 16147,15308 16163,15310 16186,15310 16202,15309 16218,15307 16234,15304 16258,15299 16274,15294 16290,15288 16314,15278 16322,15274 16330,15270 16346,15261 16354,15256 16362,15251 16386,15235 16401,15223 16409,15217 16417,15210 16433,15196 16441,15189 16449,15182 16457,15174 16473,15158 16489,15141 16505,15123 16513,15113 16521,15104 16529,15094 16537,15084 16545,15074 16553,15063 16569,15041 16577,15030 16585,15019 16593,15007 16601,14995 16609,14983 16616,14970 16632,14945 16640,14932 16648,14918 16656,14905 16664,14891 16672,14877 16680,14862 16696,14833 16704,14818 16712,14803 16720,14787 16728,14771 16736,14755 16744,14739 16752,14723 16760,14706 16768,14689 16776,14672 16784,14654 16792,14637 16800,14619 16816,14582 16824,14564 16831,14545 16839,14526 16847,14506 16855,14487 16863,14467 16871,14447 16879,14427 16887,14406 16895,14386 16903,14365 16911,14344 16919,14322 16927,14301 16935,14279 16943,14257 16951,14234 16959,14212 16967,14189 16975,14166 16983,14143 16991,14119 16999,14096 17007,14072 17015,14048 17023,14023 17031,13999 17039,13974 17046,13949 17054,13924 17062,13898 17070,13873 17078,13847 17086,13821 17094,13794 17102,13768 17110,13741 17118,13714 17126,13687 17134,13659 17142,13632 17150,13604 17158,13576 17166,13548 17174,13519 17182,13491 17190,13462 17198,13433 17206,13404 17214,13374 17222,13345 17230,13315 17238,13285 17246,13255 17254,13224 17262,13194 17269,13163 17277,13132 17285,13101 17293,13069 17301,13038 17309,13006 17317,12974 17325,12942 17333,12909 17341,12877 17349,12844 17357,12811 17365,12778 17373,12745 17381,12712 17389,12678 17397,12645 17405,12611 17413,12577 17421,12542 17429,12508 17437,12473 17445,12439 17453,12404 17461,12369 17469,12334 17477,12298 17484,12263 17492,12227 17500,12191 17508,12155 17516,12119 17524,12083 17532,12047 17540,12010 17548,11973 17556,11937 17564,11900 17572,11863 17580,11825 17588,11788 17596,11750 17604,11713 17612,11675 17620,11637 17628,11599 17636,11561 17644,11523 17652,11484 17660,11446 17668,11407 17676,11369 17684,11330 17692,11291 17699,11252 17707,11213 17715,11173 17723,11134 17731,11095 17739,11055 17747,11016 17755,10976 17763,10936 17771,10896 17779,10856 17787,10816 17795,10776 17803,10736 17811,10695 17819,10655 17827,10614 17835,10574 17843,10533 17851,10492 17859,10452 17867,10411 17875,10370 17883,10329 17891,10288 17899,10248 17907,10207 17914,10166 17922,10124 17930,10083 17938,10042 17946,10000 17954,9959 17962,9918 17970,9876 17978,9835 17986,9793 17994,9751 18002,9710 18010,9668 18018,9627 18026,9585 18034,9543 18042,9501 18050,9460 18058,9418 18066,9376 18074,9334 18082,9293 18090,9251 18098,9209 18106,9167 18114,9126 18122,9084 18129,9042 18137,9000 18145,8958 18153,8917 18161,8875 18169,8833 18177,8792 18185,8750 18193,8708 18201,8667 18209,8625 18217,8584 18225,8542 18233,8501 18241,8459 18249,8418 18257,8377 18265,8335 18273,8294 18281,8253 18289,8212 18297,8171 18304,8130 18312,8089 18320,8048 18328,8007 18336,7966 18344,7925 18351,7885 18359,7844 18367,7804 18375,7763 18383,7723 18391,7683 18399,7642 18407,7602 18415,7562 18423,7522 18431,7483 18439,7443 18447,7403 18455,7364 18463,7324 18471,7285 18479,7246 18487,7207 18495,7168 18503,7129 18511,7090 18519,7051 18527,7013 18535,6975 18543,6936 18551,6898 18559,6860 18566,6822 18574,6785 18582,6747 18590,6709 18598,6672 18606,6635 18614,6598 18622,6561 18630,6524 18638,6488 18646,6451 18654,6415 18662,6379 18670,6343 18678,6307 18686,6271 18694,6236 18702,6200 18710,6165 18718,6130 18726,6095 18734,6061 18742,6026 18750,5992 18758,5958 18766,5924 18774,5890 18781,5857 18789,5823 18797,5790 18805,5757 18813,5724 18821,5692 18829,5659 18837,5627 18845,5595 18853,5563 18861,5532 18869,5501 18877,5469 18885,5438 18893,5408 18901,5377 18909,5347 18917,5317 18925,5287 18933,5257 18941,5228 18949,5199 18957,5170 18965,5141 18973,5113 18981,5084 18989,5056 18997,5028 19005,5001 19013,4974 19021,4947 19029,4920 19037,4893 19045,4867 19053,4841 19061,4815 19068,4789 19076,4764 19084,4739 19092,4714 19100,4689 19108,4665 19116,4641 19124,4617 19132,4593 19139,4570 19147,4547 19155,4524 19163,4502 19171,4479 19179,4457 19187,4436 19194,4414 19202,4393 19210,4372 19218,4352 19226,4331 19234,4311 19242,4292 19250,4272 19259,4253 19267,4234 19275,4216 19284,4197 19292,4180 19300,4162 19309,4145 19317,4127 19326,4111 19334,4094 19343,4078 19351,4062 19367,4031 19375,4016 19383,4001 19391,3987 19399,3972 19406,3958 19414,3944 19421,3931 19434,3905 19441,3892 19453,3867 19460,3855 19472,3832 19485,3811 19491,3800 19505,3781 19513,3772 19521,3763 19529,3755 19548,3740 19569,3726 19581,3720 19607,3710 19621,3706 19636,3702 19668,3696 19684,3693 19701,3691 19718,3690 19736,3689 19753,3689 19770,3689 19788,3690 19805,3691 19822,3693 19838,3696 19854,3698 19885,3706 19899,3710 19912,3715 19937,3726 19948,3733 19968,3747 19985,3763 19993,3772 20001,3781 20008,3791 20021,3811 20028,3821 20040,3844 20053,3867 20059,3879 20072,3905 20078,3918 20092,3944 20100,3958 20107,3972 20115,3987 20123,4001 20131,4016 20139,4031 20147,4046 20163,4078 20172,4094 20180,4111 20189,4127 20197,4145 20206,4162 20214,4180 20222,4197 20231,4216 20239,4234 20247,4253 20256,4272 20264,4292 20272,4311 20280,4331 20288,4352 20296,4372 20304,4393 20312,4414 20319,4436 20327,4457 20335,4479 20343,4502 20351,4524 20359,4547 20367,4570 20374,4593 20382,4617 20390,4641 20398,4665 20406,4689 20414,4714 20422,4739 20430,4764 20438,4789 20445,4815 20453,4841 20461,4867 20469,4893 20477,4920 20485,4947 20493,4974 20501,5001 20509,5028 20517,5056 20525,5084 20533,5113 20541,5141 20549,5170 20557,5199 20565,5228 20573,5257 20581,5287 20589,5317 20597,5347 20605,5377 20613,5408 20621,5438 20629,5469 20637,5501 20645,5532 20653,5563 20661,5595 20669,5627 20677,5659 20685,5692 20693,5724 20701,5757 20709,5790 20717,5823 20725,5857 20732,5890 20740,5924 20748,5958 20756,5992 20764,6026 20772,6061 20780,6095 20788,6130 20796,6165 20804,6200 20812,6236 20820,6271 20828,6307 20836,6343 20844,6379 20852,6415 20860,6451 20868,6488 20876,6524 20884,6561 20892,6598 20900,6635 20908,6672 20916,6709 20924,6747 20932,6785 20940,6822 20947,6860 20955,6898 20963,6936 20971,6975 20979,7013 20987,7051 20995,7090 21003,7129 21011,7168 21019,7207 21027,7246 21035,7285 21043,7324 21051,7364 21059,7403 21067,7443 21075,7483 21083,7522 21091,7562 21099,7602 21107,7642 21115,7683 21123,7723 21131,7763 21139,7804 21147,7844 21155,7885 21162,7925 21170,7966 21178,8007 21186,8048 21194,8089 21202,8130 21210,8171 21218,8212 21226,8253 21234,8294 21242,8335 21250,8377 21258,8418 21266,8459 21274,8501 21282,8542 21290,8584 21298,8625 21306,8667 21314,8708 21322,8750 21330,8792 21338,8833 21346,8875 21354,8917 21362,8958 21370,9000 21378,9042 21385,9084 21393,9126 21401,9167 21409,9209 21417,9251 21425,9293 21433,9334 21441,9376 21449,9418 21457,9460 21465,9501 21473,9543 21481,9585 21489,9627 21497,9668 21505,9710 21513,9751 21521,9793 21529,9835 21537,9876 21545,9918 21553,9959 21561,10000 21569,10042 21577,10083 21585,10124 21593,10166 21600,10207 21608,10248 21616,10288 21624,10329 21632,10370 21640,10411 21648,10452 21656,10492 21664,10533 21672,10574 21680,10614 21688,10655 21696,10695 21704,10736 21712,10776 21720,10816 21728,10856 21736,10896 21744,10936 21752,10976 21760,11016 21768,11055 21776,11095 21784,11134 21792,11173 21800,11213 21808,11252 21815,11291 21823,11330 21831,11369 21839,11407 21847,11446 21855,11484 21863,11523 21871,11561 21879,11599 21887,11637 21895,11675 21903,11713 21911,11750 21919,11788 21927,11825 21935,11863 21943,11900 21951,11937 21959,11973 21967,12010 21975,12047 21983,12083 21991,12119 21999,12155 22007,12191 22015,12227 22023,12263 22030,12298 22038,12334 22046,12369 22054,12404 22062,12439 22070,12473 22078,12508 22086,12542 22094,12577 22102,12611 22110,12645 22118,12678 22126,12712 22134,12745 22142,12778 22150,12811 22158,12844 22166,12877 22174,12909 22182,12942 22190,12974 22198,13006 22206,13038 22214,13069 22222,13101 22230,13132 22238,13163 22245,13194 22253,13224 22261,13255 22269,13285 22277,13315 22285,13345 22293,13374 22301,13404 22309,13433 22317,13462 22325,13491 22333,13519 22341,13548 22349,13576 22357,13604 22365,13632 22373,13659 22381,13687 22389,13714 22397,13741 22405,13768 22413,13794 22421,13821 22429,13847 22437,13873 22445,13898 22453,13924 22461,13949 22468,13974 22476,13999 22484,14023 22492,14048 22500,14072 22508,14096 22516,14119 22524,14143 22532,14166 22540,14189 22548,14212 22556,14234 22564,14257 22572,14279 22580,14301 22588,14322 22596,14344 22604,14365 22612,14386 22620,14406 22628,14427 22636,14447 22644,14467 22652,14487 22660,14506 22668,14526 22676,14545 22683,14564 22691,14582 22699,14601 22715,14637 22723,14654 22731,14672 22739,14689 22747,14706 22755,14723 22763,14739 22771,14755 22779,14771 22787,14787 22795,14803 22803,14818 22811,14833 22819,14848 22835,14877 22843,14891 22851,14905 22859,14918 22867,14932 22875,14945 22883,14958 22898,14983 22906,14995 22914,15007 22922,15019 22930,15030 22938,15041 22946,15052 22962,15074 22970,15084 22978,15094 22986,15104 22994,15113 23002,15123 23010,15132 23026,15149 23042,15166 23058,15182 23066,15189 23074,15196 23082,15203 23098,15217 23106,15223 23113,15229 23129,15241 23153,15256 23161,15261 23169,15266 23185,15274 23193,15278 23201,15281 23225,15291 23241,15296 23257,15301 23281,15306 23297,15308 23313,15309 23328,15310 23352,15309 23368,15308 23384,15305 23408,15300 23424,15296 23432,15293 23440,15291 23456,15285 23480,15275 23496,15267 23512,15258 23520,15254 23536,15244 23551,15234 23567,15223 23575,15217 23583,15211 23599,15198 23607,15192 23623,15179 23639,15164 23647,15157 23663,15142 23679,15126 23687,15118 23695,15110 23703,15101 23711,15093 23719,15084 23735,15066 23751,15048 23766,15028 23782,15009 23798,14989 23806,14978 23814,14968 23822,14957 23830,14947 23838,14936 23854,14914 23862,14902 23870,14891 23878,14880 23894,14856 23910,14833 23918,14821 23934,14796 23942,14784 23950,14771 23958,14759 23966,14746 23981,14720 23989,14707 24005,14681 24013,14668 24021,14654 24037,14627 24045,14614 24053,14600 24061,14586 24069,14572 24077,14558 24093,14530 24101,14515 24109,14501 24117,14487 24133,14458 24141,14443 24149,14428 24165,14399 24173,14384 24181,14369 24189,14354 24204,14324 24212,14309 24220,14294 24228,14278 24244,14248 24252,14232 24260,14217 24268,14201 24276,14186 24292,14154 24300,14139 24308,14123 24316,14107 24324,14092 24332,14076 24340,14060 24348,14044 24356,14028 24364,14012 24372,13996 24388,13964 24396,13948 24404,13932 24412,13916 24419,13900 24427,13884 24443,13852 24451,13836 24459,13820 24467,13804 24475,13788 24483,13772 24499,13739 24507,13723 24515,13707 24523,13691 24531,13675 24539,13659 24547,13643 24555,13627 24563,13611 24571,13595 24579,13579 24587,13563 24595,13547 24603,13531 24611,13515 24619,13499 24627,13483 24634,13467 24642,13452 24658,13420 24666,13404 24674,13389 24682,13373 24690,13357 24698,13342 24706,13326 24714,13311 24722,13295 24730,13280 24738,13264 24754,13234 24762,13219 24770,13203 24778,13188 24786,13173 24794,13158 24802,13143 24810,13128 24818,13113 24826,13099 24834,13084 24842,13069 24849,13055 24857,13040 24873,13011 24881,12997 24889,12982 24897,12968 24905,12954 24913,12940 24921,12926 24929,12912 24937,12898 24945,12884 24953,12871 24969,12843 24977,12830 24985,12817 24993,12803 25001,12790 25009,12777 25025,12751 25033,12738 25041,12725 25049,12712 25057,12700 25072,12675 25080,12662 25096,12638 25104,12626 25112,12614 25120,12602 25128,12590 25136,12579 25144,12567 25152,12556 25160,12544 25168,12533 25184,12511 25200,12489 25208,12478 25216,12468 25224,12457 25240,12436 25256,12416 25264,12406 25272,12396 25279,12386 25287,12377 25295,12367 25303,12358 25311,12348 25319,12339 25335,12321 25351,12303 25367,12286 25383,12270 25391,12261 25407,12246 25423,12230 25439,12215 25447,12208 25463,12194 25479,12180 25487,12173 25495,12167 25510,12154 25518,12148 25534,12136 25550,12124 25558,12119 25566,12113 25590,12098 25606,12088 25614,12083 25622,12079 25646,12066 25654,12062 25662,12058 25678,12050 25694,12043 25717,12034 25733,12028 25741,12026 25749,12023 25765,12018 25789,12012 25805,12009 25813,12008 25821,12006 25845,12003 25861,12001 25877,12000 25893,11999 25917,11999 25932,12000 25948,12001 25972,12004 25988,12006 26004,12009 26020,12012 26044,12018 26060,12022 26076,12027 26100,12035 26116,12041 26132,12048 26147,12055 26171,12066 26187,12074 26203,12082 26211,12086 26227,12095 26243,12105 26259,12115 26275,12125 26299,12141 26315,12152 26331,12164 26355,12182 26370,12194 26378,12200 26386,12207 26402,12220 26418,12234 26426,12240 26442,12254 26458,12269 26466,12276 26482,12291 26498,12306 26506,12314 26514,12321 26522,12329 26530,12337 26546,12353 26554,12361 26562,12369 26570,12377 26578,12386 26585,12394 26601,12411 26609,12420 26617,12428 26625,12437 26633,12446 26641,12454 26649,12463 26657,12472 26665,12481 26681,12499 26697,12517 26713,12536 26729,12554 26737,12564 26745,12573 26753,12583 26761,12592 26769,12602 26777,12612 26785,12621 26793,12631 26808,12650 26824,12670 26840,12690 26856,12710 26864,12720 26872,12730 26880,12740 26888,12750 26896,12760 26912,12780 26928,12801 26936,12811 26944,12821 26952,12831 26960,12842 26968,12852 26976,12862 26984,12872 26992,12883 27000,12893 27008,12903 27015,12914 27023,12924 27031,12935 27039,12945 27047,12955 27063,12976 27071,12987 27079,12997 27087,13007 27095,13018 27103,13028 27119,13049 27135,13070 27143,13080 27151,13090 27159,13101 27167,13111 27175,13122 27191,13142 27207,13163 27215,13173 27223,13183 27230,13194 27246,13214 27262,13234 27278,13255 27294,13275 27310,13295 27318,13305 27334,13325 27350,13344 27366,13364 27374,13374 27382,13384 27390,13393 27398,13403 27406,13413 27414,13422 27422,13432 27430,13441 27445,13460 27461,13479 27477,13497 27493,13516 27501,13525 27509,13534 27517,13543 27525,13552 27533,13561 27541,13570 27549,13578 27557,13587 27573,13605 27581,13613 27589,13622 27597,13630 27605,13639 27613,13647 27629,13663 27645,13680 27661,13696 27668,13704 27676,13712 27684,13720 27700,13735 27708,13743 27716,13750 27724,13758 27732,13765 27748,13780 27764,13794 27772,13801 27788,13815 27804,13829 27812,13835 27828,13848 27836,13855 27844,13861 27852,13868 27860,13874 27876,13886 27883,13892 27899,13904 27907,13910 27915,13916 27931,13927 27955,13943 27971,13953 27987,13963 28003,13973 28019,13982 28027,13987 28043,13996 28051,14000 28059,14004 28083,14017 28091,14020 28098,14024 28114,14032 28130,14038 28154,14048 28170,14054 28178,14057 28186,14060 28210,14068 28226,14073 28234,14075 28242,14077 28258,14082 28282,14087 28298,14090 28313,14093 28337,14097 28353,14099 28369,14101 28385,14102 28409,14103 28425,14104 28441,14104 28465,14103 28481,14102 28497,14101 28513,14100 28536,14097 28552,14095 28568,14092 28592,14087 28608,14084 28624,14080 28640,14076 28648,14074 28664,14069 28680,14064 28696,14059 28712,14053 28720,14050 28736,14044 28751,14038 28759,14034 28767,14031 28791,14020 28799,14017 28807,14013 28823,14005 28839,13997 28847,13993 28863,13985 28879,13976 28895,13967 28911,13958 28919,13954 28935,13944 28943,13939 28951,13934 28974,13919 28990,13908 28998,13903 29006,13898 29022,13887 29030,13881 29046,13870 29054,13864 29062,13859 29078,13847 29102,13829 29118,13817 29126,13811 29134,13805 29150,13792 29174,13773 29189,13760 29197,13753 29205,13747 29221,13733 29229,13727 29245,13713 29261,13699 29269,13692 29277,13685 29285,13678 29301,13664 29309,13657 29317,13650 29333,13636 29349,13621 29357,13614 29373,13600 29389,13585 29404,13570 29412,13563 29428,13548 29444,13533 29452,13525 29460,13518 29468,13510 29484,13495 29492,13488 29500,13480 29508,13472 29516,13465 29532,13449 29548,13434 29556,13426 29572,13411 29588,13396 29612,13372 29627,13357 29643,13341 29659,13326 29667,13318 29683,13303 29699,13288 29707,13280 29715,13272 29723,13264 29731,13257 29747,13241 29755,13234 29763,13226 29771,13219 29787,13203 29803,13188 29811,13181 29827,13166 29842,13151 29858,13136 29866,13129 29882,13114 29898,13099 29906,13092 29914,13085 29922,13077 29938,13063 29946,13056 29954,13049 29970,13034 29986,13020 30010,13000 30026,12986 30034,12979 30042,12972 30049,12966 30065,12952 30073,12946 30081,12939 30097,12926 30113,12913 30121,12907 30137,12894 30145,12888 30153,12881 30169,12869 30193,12851 30209,12839 30217,12833 30225,12828 30241,12816 30249,12811 30264,12799 30272,12794 30280,12788 30296,12778 30320,12762 30328,12757 30336,12752 30352,12742 30360,12737 30368,12732 30392,12718 30408,12709 30424,12700 30448,12687 30456,12683 30464,12678 30479,12670 30495,12663 30519,12651 30535,12644 30551,12637 30575,12627 30591,12621 30607,12615 30623,12609 30647,12601 30663,12596 30679,12591 30687,12588 30702,12584 30718,12580 30734,12576 30750,12572 30758,12570 30774,12567 30790,12564 30806,12562 30830,12558 30846,12556 30862,12554 30878,12553 30886,12552 30902,12551 30917,12550 30933,12550 30957,12550 30973,12550 30989,12550 31005,12551 31029,12553 31037,12553 31045,12554 31061,12556 31085,12559 31101,12561 31117,12564 31132,12567 31156,12571 31164,12573 31172,12575 31188,12578 31212,12585 31228,12589 31236,12591 31244,12593 31260,12598 31284,12606 31300,12611 31316,12617 31340,12626 31347,12629 31355,12632 31371,12639 31387,12645 31395,12649 31411,12656 31427,12663 31435,12667 31443,12670 31467,12682 31475,12686 31483,12690 31499,12698 31515,12706 31539,12719 31547,12723 31555,12728 31570,12736 31578,12741 31594,12750 31610,12760 31626,12769 31642,12779 31666,12794 31674,12799 31682,12804 31698,12814 31706,12819 31714,12824 31738,12840 31754,12850 31762,12856 31770,12861 31793,12878 31809,12889 31817,12894 31825,12900 31841,12911 31865,12928 31873,12934 31881,12940 31897,12951 31921,12969 31937,12981 31945,12987 31953,12992 31969,13004 31993,13022 32000,13028 32008,13034 32024,13047 32048,13065 32064,13077 32072,13083 32080,13089 32096,13101 32120,13120 32136,13132 32144,13138 32152,13144 32168,13157 32176,13163 32192,13175 32208,13187 32215,13193 32223,13200 32239,13212 32247,13218 32263,13230 32279,13242 32287,13248 32303,13260 32319,13273 32335,13285"/>
 <text class="TextShape"><tspan class="TextParagraph" font-family="Arial, sans-serif" font-size="353px" font-weight="400"><tspan class="TextPosition" x="3590" y="13797"><tspan fill="rgb(0,0,0)" stroke="none">-40</tspan></tspan></tspan></text>
 <text class="TextShape"><tspan class="TextParagraph" font-family="Arial, sans-serif" font-size="353px" font-weight="400"><tspan class="TextPosition" x="7571" y="13797"><tspan fill="rgb(0,0,0)" stroke="none">-30</tspan></tspan></tspan></text>
 <text class="TextShape"><tspan class="TextParagraph" font-family="Arial, sans-serif" font-size="353px" font-weight="400"><tspan class="TextPosition" x="11553" y="13797"><tspan fill="rgb(0,0,0)" stroke="none">-20</tspan></tspan></tspan></text>
 <text class="TextShape"><tspan class="TextParagraph" font-family="Arial, sans-serif" font-size="353px" font-weight="400"><tspan class="TextPosition" x="15534" y="13797"><tspan fill="rgb(0,0,0)" stroke="none">-10</tspan></tspan></tspan></text>
 <text class="TextShape"><tspan class="TextParagraph" font-family="Arial, sans-serif" font-size="353px" font-weight="400"><tspan class="TextPosition" x="19661" y="13797"><tspan fill="rgb(0,0,0)" stroke="none">0</tspan></tspan></tspan></text>
 <text class="TextShape"><tspan class="TextParagraph" font-family="Arial, sans-serif" font-size="353px" font-weight="400"><tspan class="TextPosition" x="23551" y="13797"><tspan fill="rgb(0,0,0)" stroke="none">10</tspan></tspan></tspan></text>
 <text class="TextShape"><tspan class="TextParagraph" font-family="Arial, sans-serif" font-size="353px" font-weight="400"><tspan class="TextPosition" x="27532" y="13797"><tspan fill="rgb(0,0,0)" stroke="none">20</tspan></tspan></tspan></text>
 <text class="TextShape"><tspan class="TextParagraph" font-family="Arial, sans-serif" font-size="353px" font-weight="400"><tspan class="TextPosition" x="31514" y="13797"><tspan fill="rgb(0,0,0)" stroke="none">30</tspan></tspan></tspan></text>
 <text class="TextShape"><tspan class="TextParagraph" font-family="Arial, sans-serif" font-size="353px" font-weight="400"><tspan class="TextPosition" x="35496" y="13797"><tspan fill="rgb(0,0,0)" stroke="none">40</tspan></tspan></tspan></text>
 <text class="TextShape"><tspan class="TextParagraph" font-family="Arial, sans-serif" font-size="459px" font-weight="400"><tspan class="TextPosition" x="16818" y="1082"><tspan fill="rgb(0,0,0)" stroke="none">Amplitude vs β</tspan></tspan></tspan></text>
 <text class="TextShape"><tspan class="TextParagraph" font-family="Arial, sans-serif" font-size="1552px" font-weight="400"><tspan class="TextPosition" x="18173" y="18336"><tspan fill="rgb(0,0,0)" stroke="none">β</tspan></tspan></tspan></text>
 <text class="TextShape" transform="rotate(-90 3113 11479)"><tspan class="TextParagraph" font-family="Arial, sans-serif" font-size="1411px" font-weight="400"><tspan class="TextPosition" x="3113" y="11479"><tspan fill="rgb(0,0,0)" stroke="none">A/Aₒ</tspan></tspan></tspan></text>
</svg>